Coordinates
version=1
nRows=14
nColumns=40
inDegrees=yes

Units are S.I. units (second, meters, Newtons, ...)
Angles are in degrees.

endheader
time	pelvis_tilt	pelvis_list	pelvis_rotation	pelvis_tx	pelvis_ty	pelvis_tz	hip_flexion_r	hip_adduction_r	hip_rotation_r	knee_angle_r	knee_angle_r_beta	ankle_angle_r	subtalar_angle_r	mtp_angle_r	hip_flexion_l	hip_adduction_l	hip_rotation_l	knee_angle_l	knee_angle_l_beta	ankle_angle_l	subtalar_angle_l	mtp_angle_l	lumbar_extension	lumbar_bending	lumbar_rotation	arm_flex_r	arm_add_r	arm_rot_r	elbow_flex_r	pro_sup_r	wrist_flex_r	wrist_dev_r	arm_flex_l	arm_add_l	arm_rot_l	elbow_flex_l	pro_sup_l	wrist_flex_l	wrist_dev_l
     32.87000000	     -3.63942782	     -5.05234894	      3.72158167	      0.96033899	      0.93472190	      0.49545064	      8.87642660	      4.78890498	    -19.02747336	     12.28734923	     12.28734923	      9.94961990	      4.57454878	     -2.48258328	     32.29406197	    -11.79398759	      0.73423667	     58.69213178	     58.69213178	      7.09624550	    -17.40899046	     10.36281557	     -8.39370786	      6.11350270	      4.37952477	     23.29162766	    -16.33800178	     -6.99456967	     55.82917433	     44.10532629	      0.00000000	      0.00000000	     -0.15135602	     -7.15686842	      5.50082800	     25.40767275	     43.64831045	      0.00000000	      0.00000000
     32.88171429	     -3.89139611	     -4.97807600	      3.79005757	      0.95893624	      0.93459564	      0.49577283	      8.44558735	      4.80742402	    -19.16255003	     11.74840038	     11.74840038	     10.08999280	      5.05956586	     -2.61202270	     33.20901684	    -11.58648890	      0.29967948	     55.64938821	     55.64938821	      7.39666144	    -17.59349140	     10.47333110	     -8.25424272	      6.02877814	      4.44365386	     25.23617880	    -16.42058318	     -7.11110680	     56.98265739	     44.09727229	      0.00000000	      0.00000000	     -1.29532477	     -6.92938560	      5.63150218	     24.75537274	     43.63623606	      0.00000000	      0.00000000
     32.89342857	     -4.07033808	     -4.97218175	      3.86617751	      0.95757393	      0.93440530	      0.49605947	      7.97036652	      4.90421051	    -19.24925891	     11.25919279	     11.25919279	     10.24876017	      5.45759381	     -2.75357489	     33.83393128	    -11.38602846	     -0.05064990	     52.29880978	     52.29880978	      7.66388693	    -17.59800081	     10.57826518	     -8.21437189	      6.05085926	      4.64934607	     27.17113161	    -16.59878278	     -7.24740475	     58.22006212	     44.08480612	      0.00000000	      0.00000000	     -2.42137618	     -6.69630632	      5.73519047	     24.43771882	     43.62083694	      0.00000000	      0.00000000
     32.90514286	     -4.19893009	     -5.01122023	      3.97070781	      0.95631017	      0.93418485	      0.49620824	      7.40567224	      5.04730885	    -19.46728272	     10.69711452	     10.69711452	     10.36622522	      6.00055996	     -2.97362135	     34.21167375	    -11.14708592	     -0.29373591	     48.67889952	     48.67889952	      7.80932832	    -17.49700237	     10.57430122	     -8.23177597	      6.14745209	      4.69284716	     29.08131756	    -16.68772769	     -7.37065264	     59.76951405	     44.07070224	      0.00000000	      0.00000000	     -3.68745318	     -6.48836731	      5.88345171	     24.37792115	     43.60363488	      0.00000000	      0.00000000
     32.91685714	     -4.35173135	     -5.04566178	      4.04695356	      0.95506400	      0.93381566	      0.49628522	      6.91451566	      5.16624824	    -19.65993113	     10.21693466	     10.21693466	     10.49002509	      6.51594557	     -3.24877601	     34.43642838	    -10.86306777	     -0.51014053	     44.86433988	     44.86433988	      7.89228795	    -17.20086512	     10.53209366	     -8.24744141	      6.23279113	      4.83142989	     30.88024629	    -16.84099112	     -7.49198185	     61.31460336	     44.06616143	      0.00000000	      0.00000000	     -4.94982770	     -6.31705107	      6.10004757	     24.58085169	     43.58272395	      0.00000000	      0.00000000
     32.92857143	     -4.45306462	     -5.06360976	      4.12323542	      0.95387757	      0.93345032	      0.49624751	      6.44264826	      5.25122949	    -19.73068686	      9.88641176	      9.88641176	     10.66607568	      6.82001103	     -3.43743507	     34.46364526	    -10.50471589	     -0.63177588	     40.92745168	     40.92745168	      8.08907498	    -16.61715091	     10.71610543	     -8.29823946	      6.27912465	      5.02480507	     32.58593139	    -16.99936585	     -7.61724857	     62.52415458	     44.06264303	      0.00000000	      0.00000000	     -6.05712840	     -6.15372031	      6.29863363	     24.61344627	     43.55670857	      0.00000000	      0.00000000
     32.94028571	     -4.63337878	     -5.11429984	      4.19650782	      0.95279822	      0.93278547	      0.49603392	      6.03553514	      5.34820995	    -19.98984382	      9.52707378	      9.52707378	     10.87443344	      7.34681216	     -3.72179866	     34.51562207	    -10.16583197	     -0.76040617	     37.00415197	     37.00415197	      8.15294759	    -15.79680389	     10.44042993	     -8.22208958	      6.42142048	      5.16583145	     34.22952488	    -17.13981376	     -7.71369198	     63.96414921	     44.08300179	      0.00000000	      0.00000000	     -7.27554223	     -6.03954593	      6.76251652	     25.04621350	     43.51929840	      0.00000000	      0.00000000
     32.95200000	     -4.79741901	     -5.16004769	      4.25145647	      0.95171968	      0.93211691	      0.49575853	      5.70333061	      5.43155006	    -19.97765016	      9.34152346	      9.34152346	     11.13734326	      7.43563538	     -3.84649990	     34.49282926	     -9.82500322	     -0.88966679	     33.14517008	     33.14517008	      8.50188625	    -14.53126363	     10.74895164	     -8.15506335	      6.51884174	      5.42834486	     35.86119135	    -17.36255455	     -7.83759678	     64.81617036	     44.07911455	      0.00000000	      0.00000000	     -8.14177291	     -5.84524730	      6.90526354	     24.88656344	     43.49606001	      0.00000000	      0.00000000
     32.96371429	     -4.91187700	     -5.23308092	      4.34000325	      0.95076289	      0.93146215	      0.49531101	      5.27824763	      5.53960841	    -20.07796890	      9.09784327	      9.09784327	     11.39367863	      7.69153746	     -3.96442024	     34.37751822	     -9.48881573	     -0.98989546	     29.38092754	     29.38092754	      8.80345139	    -13.08716128	     11.01180655	     -8.13435747	      6.65932068	      5.49492014	     37.42387083	    -17.39350514	     -7.91930752	     65.80121800	     44.06876722	      0.00000000	      0.00000000	     -9.02962109	     -5.67051408	      7.06383379	     24.72896731	     43.46950863	      0.00000000	      0.00000000
     32.97542857	     -5.07985714	     -5.36983744	      4.45264823	      0.94985852	      0.93063050	      0.49472721	      4.93563279	      5.69820894	    -20.21030164	      8.89764896	      8.89764896	     11.64767519	      7.90680927	     -4.07660874	     34.35342227	     -9.19992456	     -1.07685319	     25.87174712	     25.87174712	      9.07514556	    -11.50501735	     11.27533066	     -8.01462548	      6.89427940	      5.56928265	     38.90619550	    -17.46467002	     -7.99935685	     66.69475385	     44.05783079	      0.00000000	      0.00000000	     -9.76431585	     -5.44469619	      7.19199530	     24.62074980	     43.44655223	      0.00000000	      0.00000000
     32.98714286	     -5.09874603	     -5.43179973	      4.54691867	      0.94920958	      0.93007474	      0.49407440	      4.37052054	      5.78834182	    -20.38750733	      8.63294569	      8.63294569	     11.92807147	      8.32257296	     -4.15280916	     34.09438746	     -8.90376246	     -1.42696209	     22.56774871	     22.56774871	      9.22991109	     -9.75440931	     11.43851011	     -8.08525270	      6.97421910	      5.44442940	     40.26482443	    -17.31612037	     -8.02200330	     67.78818851	     44.04461889	      0.00000000	      0.00000000	    -10.64642152	     -5.35205043	      7.37044587	     24.53600322	     43.42069884	      0.00000000	      0.00000000
     32.99885714	     -5.18942791	     -5.53866095	      4.67473956	      0.94859440	      0.92934864	      0.49325953	      3.89213121	      5.91075853	    -20.56022251	      8.39028905	      8.39028905	     12.20542726	      8.65793766	     -4.19419284	     33.98547186	     -8.62809555	     -1.82814944	     19.69704829	     19.69704829	      9.26079097	     -8.09970426	     11.60704400	     -8.02707141	      7.15934904	      5.38441627	     41.49895529	    -17.24197285	     -8.05155401	     68.74978320	     44.03732572	      0.00000000	      0.00000000	    -11.32701742	     -5.21640573	      7.55077731	     24.54026687	     43.40028699	      0.00000000	      0.00000000
     33.01057143	     -5.25241363	     -5.61756592	      4.79859382	      0.94813220	      0.92868710	      0.49233666	      3.36263675	      6.00568319	    -20.70340929	      8.13311253	      8.13311253	     12.48853141	      8.98938978	     -4.19566138	     33.88358893	     -8.33613466	     -2.34221388	     17.31970641	     17.31970641	      9.18451545	     -6.65201366	     11.81596714	     -7.97542195	      7.29900652	      5.29838157	     42.58876715	    -17.14687109	     -8.08243916	     69.65474972	     44.03203420	      0.00000000	      0.00000000	    -11.93398504	     -5.12689334	      7.73561959	     24.51593956	     43.38216754	      0.00000000	      0.00000000
     33.02228571	     -5.32065530	     -5.68589004	      4.91676610	      0.94777014	      0.92803887	      0.49133461	      2.84295836	      6.08514056	    -20.78306336	      7.89748185	      7.89748185	     12.75851742	      9.22752595	     -4.17705502	     33.84373700	     -8.04373775	     -2.92381750	     15.51075793	     15.51075793	      8.97526049	     -5.53811704	     12.05306407	     -7.88592934	      7.40923028	      5.21561823	     43.53906689	    -17.08078600	     -8.13044328	     70.43965367	     44.02746370	      0.00000000	      0.00000000	    -12.45490680	     -5.07669083	      7.88386362	     24.45019551	     43.36846345	      0.00000000	      0.00000000
